<?xml version="1.0" standalone="no"?>
<!DOCTYPE svg PUBLIC "-//W3C//DTD SVG 20010904//EN"
 "http://www.w3.org/TR/2001/REC-SVG-20010904/DTD/svg10.dtd">
<svg version="1.0" xmlns="http://www.w3.org/2000/svg"
 width="2560.000000pt" height="2560.000000pt" viewBox="0 0 2560.000000 2560.000000"
 preserveAspectRatio="xMidYMid meet">
<metadata>
Created by potrace 1.14, written by Peter Selinger 2001-2017
</metadata>
<g transform="translate(0.000000,2560.000000) scale(0.100000,-0.100000)"
fill="#000000" stroke="none">
<path d="M14108 24495 c-2 -1 -97 -5 -213 -9 -115 -3 -226 -8 -245 -10 -19 -2
-66 -7 -105 -11 -38 -3 -83 -8 -100 -10 -16 -2 -59 -7 -95 -10 -36 -4 -72 -8
-80 -10 -20 -4 -170 -27 -195 -30 -17 -3 -199 -38 -259 -50 -86 -19 -291 -68
-331 -80 -27 -9 -59 -17 -70 -19 -82 -17 -560 -174 -670 -221 -16 -7 -46 -18
-65 -26 -233 -86 -682 -296 -970 -454 -320 -175 -734 -444 -966 -629 -28 -23
-68 -54 -90 -71 -167 -130 -388 -328 -587 -529 -502 -505 -833 -978 -1054
-1506 -19 -47 -42 -99 -49 -117 -8 -17 -14 -37 -14 -45 0 -8 -3 -18 -7 -21
-16 -17 -97 -295 -129 -447 -19 -88 -19 -92 -29 -150 -4 -25 -9 -54 -11 -65
-2 -11 -7 -42 -9 -70 -3 -27 -8 -63 -10 -80 -26 -179 -26 -671 0 -805 3 -13 7
-42 10 -65 44 -316 153 -630 313 -894 150 -249 402 -513 632 -663 148 -96 414
-204 553 -223 23 -3 49 -8 57 -10 14 -4 31 -7 108 -19 15 -3 61 -8 102 -11 41
-4 78 -12 82 -18 4 -7 19 -49 33 -96 35 -112 104 -271 166 -384 44 -78 170
-271 189 -287 3 -3 18 -21 34 -40 51 -64 230 -241 301 -299 208 -170 444 -282
710 -337 51 -10 137 -25 186 -32 74 -9 462 -9 524 1 458 75 774 279 1040 672
114 167 205 378 234 540 6 33 14 71 16 85 16 72 11 380 -9 530 -33 252 -126
462 -308 696 -43 56 -98 117 -121 137 -23 19 -53 45 -67 57 -85 76 -364 232
-594 331 -110 47 -153 84 -190 163 -72 154 -68 419 10 656 18 52 90 221 114
265 94 170 142 247 226 361 95 128 293 316 448 425 27 19 65 45 85 59 60 42
233 146 291 175 30 15 57 31 58 36 2 5 9 9 15 9 7 0 47 18 90 40 434 224 1052
384 1677 435 41 3 86 8 100 10 71 12 331 20 630 20 290 0 391 -4 522 -20 74
-9 78 -16 163 -270 87 -258 126 -430 180 -775 2 -14 7 -50 10 -80 3 -30 8 -66
10 -80 2 -14 7 -65 10 -115 4 -49 9 -117 11 -150 7 -84 7 -514 1 -550 -3 -16
-11 -75 -17 -130 -10 -80 -35 -217 -54 -290 -57 -220 -169 -495 -260 -638 -18
-29 -36 -60 -39 -71 -13 -33 -179 -269 -267 -376 -78 -96 -339 -366 -435 -450
-302 -265 -621 -489 -1045 -732 -91 -53 -370 -218 -620 -368 -250 -150 -470
-281 -488 -291 -18 -11 -73 -44 -123 -74 -50 -30 -93 -55 -96 -55 -4 0 -14 -6
-22 -14 -9 -7 -36 -25 -61 -38 -34 -19 -349 -206 -500 -297 -72 -44 -329 -198
-342 -206 -10 -5 -59 -34 -110 -64 -51 -30 -104 -62 -118 -72 -21 -14 -166
-101 -314 -188 -50 -29 -73 -43 -178 -106 -564 -337 -986 -589 -1140 -680
-574 -338 -1177 -871 -1581 -1395 -53 -69 -100 -129 -105 -135 -4 -5 -39 -55
-78 -110 -330 -474 -546 -964 -659 -1495 -35 -167 -57 -312 -72 -489 -10 -112
-10 -523 0 -629 15 -152 26 -241 42 -322 3 -14 7 -34 9 -46 21 -111 98 -386
126 -449 4 -11 19 -47 32 -80 101 -261 291 -566 498 -800 42 -47 214 -219 256
-255 325 -282 596 -450 961 -594 78 -31 145 -56 150 -56 4 0 21 -26 37 -58 54
-106 156 -264 258 -397 116 -150 325 -362 493 -496 105 -85 319 -239 330 -239
3 0 29 -16 59 -35 135 -86 402 -207 605 -275 115 -38 385 -104 471 -115 95
-12 136 -18 155 -21 137 -25 681 -25 885 1 43 5 114 15 140 19 14 3 41 7 60
10 201 30 575 134 725 201 17 8 62 27 100 43 638 270 1249 814 1618 1440 182
310 321 682 383 1032 19 104 25 142 30 195 3 33 7 66 10 73 7 24 18 245 17
377 0 160 -3 223 -14 300 -4 33 -11 80 -14 105 -42 307 -196 696 -394 995 -54
82 -53 80 -127 170 -62 75 -314 335 -325 335 -6 0 -202 -146 -768 -572 -68
-51 -129 -96 -135 -100 -8 -4 -9 14 -5 65 6 83 3 425 -5 477 -3 19 -8 55 -11
80 -9 75 -47 246 -82 372 -5 17 -1 19 362 193 72 34 202 97 290 140 88 42 203
98 255 122 52 25 165 79 250 120 85 42 211 102 280 135 168 81 314 151 500
241 85 41 209 100 275 132 111 53 177 85 540 260 72 34 189 91 260 125 554
264 958 488 1258 695 196 135 395 282 512 378 92 76 156 130 181 152 12 11 55
49 95 85 82 71 391 379 484 481 528 579 894 1176 1104 1794 77 230 153 535
176 715 3 25 8 52 10 60 2 8 7 44 10 80 3 36 8 81 10 100 19 153 23 470 11
740 -9 210 -10 220 -32 450 -5 49 -23 189 -41 305 -3 22 -7 49 -8 60 -13 91
-86 436 -110 520 -8 28 -24 84 -35 125 -174 619 -473 1217 -854 1705 -63 81
-97 122 -215 260 -19 22 -105 110 -191 195 -313 312 -654 559 -1048 757 l-174
88 -98 130 c-285 377 -602 693 -945 941 -105 76 -348 234 -360 234 -3 0 -23
11 -45 25 -73 46 -335 173 -480 233 -193 79 -541 196 -646 218 -12 2 -80 18
-150 35 -197 47 -391 82 -574 104 -30 4 -57 8 -60 10 -3 2 -42 6 -87 10 -45 3
-90 8 -101 10 -18 3 -132 13 -242 21 -30 2 -149 6 -265 9 -115 4 -218 8 -227
9 -9 2 -18 3 -20 1z m-133 -1649 c77 -3 151 -8 165 -10 14 -3 52 -7 85 -11 33
-3 78 -9 100 -14 l40 -8 -30 -8 c-16 -4 -97 -28 -180 -52 -82 -24 -159 -45
-169 -48 -46 -11 -361 -119 -421 -145 -11 -4 -36 -14 -55 -21 -220 -79 -708
-303 -970 -445 -526 -285 -1062 -663 -1460 -1030 -207 -191 -445 -439 -595
-619 -27 -33 -52 -62 -55 -65 -3 -3 -43 -53 -88 -112 l-83 -107 -81 34 c-99
42 -136 66 -170 114 -84 116 -107 379 -53 593 34 134 102 310 150 388 12 19
22 37 22 40 0 3 12 24 26 47 15 24 27 45 27 47 0 11 96 154 153 228 120 157
325 342 537 485 176 119 521 300 710 373 47 18 94 37 105 41 137 60 629 187
825 214 19 2 46 6 60 9 14 3 48 7 75 11 28 3 57 8 65 10 22 5 95 14 175 20 39
3 81 7 95 10 14 2 70 7 125 11 55 3 120 8 145 10 25 3 160 7 300 11 140 3 257
7 258 9 2 1 9 1 15 -1 7 -2 75 -6 152 -9z m-2745 -10694 c-437 -362 -843 -817
-1130 -1267 -170 -266 -278 -476 -404 -790 l-16 -40 5 85 c3 47 7 99 10 115 3
17 7 41 9 55 8 47 57 222 77 273 130 332 338 632 663 952 129 128 281 261 401
353 51 40 176 130 245 177 47 32 105 73 130 91 60 44 65 42 10 -4z m1786
-1554 c-22 -209 -84 -472 -142 -603 -7 -16 -27 -61 -44 -100 -17 -38 -31 -72
-32 -75 0 -3 -8 -16 -17 -30 -10 -14 -21 -33 -24 -42 -8 -22 -123 -204 -151
-239 -12 -15 -30 -39 -41 -55 -204 -288 -552 -503 -963 -594 -56 -13 -105 -21
-108 -18 -9 10 28 144 61 223 7 17 16 41 20 55 9 28 93 202 128 265 64 113
193 294 299 417 55 64 300 312 378 384 154 139 599 472 634 474 4 0 5 -28 2
-62z m1457 -464 c58 -73 121 -156 140 -185 66 -105 144 -316 176 -477 22 -107
20 -306 -5 -457 -2 -16 -6 -46 -9 -65 -23 -187 -112 -458 -218 -660 -193 -370
-439 -628 -742 -778 -86 -42 -243 -104 -315 -123 -25 -7 -49 -14 -55 -15 -53
-15 -197 -43 -249 -49 -23 -3 -51 -7 -64 -10 -141 -27 -698 -26 -743 1 -4 2
-23 6 -42 9 -20 4 -73 18 -117 33 l-82 28 84 34 c301 123 683 356 906 553 358
317 578 576 781 920 153 259 301 638 355 907 3 14 7 36 10 50 10 47 16 75 21
110 3 19 10 60 15 90 5 30 12 89 15 130 8 87 12 107 24 94 4 -5 55 -68 114
-140z"/>
<path d="M8988 6565 c-1 -2 -37 -6 -78 -10 -41 -4 -93 -10 -115 -15 -22 -5
-60 -11 -85 -15 -25 -3 -72 -13 -105 -22 -33 -8 -68 -17 -78 -19 -58 -11 -279
-96 -380 -146 -315 -155 -615 -413 -818 -703 -218 -310 -351 -680 -386 -1075
-14 -162 -7 -520 13 -623 2 -12 6 -39 10 -62 4 -33 28 -150 38 -190 28 -111
82 -267 127 -363 22 -46 39 -86 39 -87 0 -12 123 -212 166 -270 327 -445 739
-727 1249 -854 44 -11 96 -23 115 -26 19 -4 52 -10 73 -13 l39 -7 49 -125 c27
-69 68 -163 91 -209 39 -77 163 -276 191 -306 7 -7 23 -28 37 -46 92 -121 273
-299 405 -398 168 -127 359 -232 545 -299 112 -41 286 -88 380 -102 41 -6 86
-13 100 -16 26 -4 123 -13 207 -20 61 -4 264 -4 323 1 235 18 343 36 524 87
356 99 664 282 942 562 159 159 330 395 399 548 9 18 20 40 25 48 41 65 155
425 173 550 29 191 38 296 38 459 0 401 -83 774 -239 1076 -42 82 -137 239
-156 257 -7 8 -15 18 -17 25 -2 6 -41 56 -86 110 -268 324 -613 561 -998 686
-89 30 -266 73 -335 82 -25 4 -48 10 -51 13 -3 4 -20 48 -38 99 -61 176 -166
369 -294 541 -107 143 -225 263 -412 421 -69 58 -257 175 -373 232 -128 63
-302 126 -422 155 -147 34 -146 34 -325 60 -43 6 -501 15 -507 9z"/>
</g>
</svg>
